<svg width="116.801" class="portal-icon" height="116.8" viewBox="0 0 116.801 116.8"><g id="Groupe_33" data-name="Groupe 33" class="logo" transform="translate(0 -0.002)"><g id="Groupe_19" data-name="Groupe 19" transform="translate(41.851 89.239)"><g id="Groupe_18" data-name="Groupe 18"><path id="Trac\xE9_21" data-name="Trac\xE9 21" class="cls-1" d="M242.732,393.575l-13.741-2.258a1.915,1.915,0,0,0-.621,3.779l13.891,2.282a1.991,1.991,0,0,0,.31.025c6.619,0,12,4.448,12,9.917v7.59H187.286v-7.59c0-5.469,5.385-9.917,12-9.917a1.883,1.883,0,0,0,.31-.025l14.592-2.4a1.915,1.915,0,1,0-.621-3.779l-14.442,2.373c-8.658.075-15.674,6.213-15.674,13.745v9.5a1.915,1.915,0,0,0,1.915,1.915h71.12a1.917,1.917,0,0,0,1.916-1.915v-9.5C258.405,399.788,251.389,393.65,242.732,393.575Z" transform="translate(-183.455 -391.177)"></path></g></g><g id="Groupe_21" data-name="Groupe 21" transform="translate(68.931 78.507)"><g id="Groupe_20" data-name="Groupe 20"><path id="Trac\xE9_22" data-name="Trac\xE9 22" class="cls-1" d="M321.311,344.133H304.079a1.915,1.915,0,0,0-1.915,1.915v9.574a1.918,1.918,0,0,0,1.137,1.75,23.495,23.495,0,0,0,18.788,0,1.916,1.916,0,0,0,1.137-1.75v-9.574A1.915,1.915,0,0,0,321.311,344.133Zm-1.915,10.2a19.693,19.693,0,0,1-13.4,0v-6.37h13.4Z" transform="translate(-302.164 -344.133)"></path></g></g><g id="Groupe_23" data-name="Groupe 23" transform="translate(59.359 36.382)"><g id="Groupe_22" data-name="Groupe 22"><path id="Trac\xE9_23" data-name="Trac\xE9 23" class="cls-1" d="M281.264,159.477h-1.915A19.169,19.169,0,0,0,260.2,178.624V195.6a9.84,9.84,0,0,0,9.828,9.829h20.552a9.84,9.84,0,0,0,9.829-9.829V178.624A19.17,19.17,0,0,0,281.264,159.477ZM296.583,195.6a6.007,6.007,0,0,1-6,6H270.03a6.006,6.006,0,0,1-6-6V178.625a15.336,15.336,0,0,1,15.318-15.318h1.916a15.336,15.336,0,0,1,15.318,15.318V195.6Z" transform="translate(-260.202 -159.477)"></path></g></g><g id="Groupe_25" data-name="Groupe 25" transform="translate(0 0.002)"><g id="Groupe_24" data-name="Groupe 24" transform="translate(0 0)"><path id="Trac\xE9_24" data-name="Trac\xE9 24" class="cls-1" d="M61.272,30.638A30.731,30.731,0,1,0,38.154,60.317l10.641,6.426a1.915,1.915,0,0,0,2.782-2.313l-3.3-8.778A30.471,30.471,0,0,0,61.272,30.638ZM44.93,53.286a1.914,1.914,0,0,0-.769,2.291l1.892,5.037-6.618-4a1.915,1.915,0,0,0-1.51-.2,26.851,26.851,0,1,1,7.005-3.128Z" transform="translate(0 -0.002)"></path></g></g><g id="Groupe_27" data-name="Groupe 27" transform="translate(42.125 26.809)"><g id="Groupe_26" data-name="Groupe 26"><circle id="Ellipse_49" data-name="Ellipse 49" class="cls-1" cx="3.83" cy="3.83" r="3.83"></circle></g></g><g id="Groupe_29" data-name="Groupe 29" transform="translate(26.807 26.809)"><g id="Groupe_28" data-name="Groupe 28"><circle id="Ellipse_50" data-name="Ellipse 50" class="cls-1" cx="3.83" cy="3.83" r="3.83"></circle></g></g><g id="Groupe_31" data-name="Groupe 31" transform="translate(11.489 26.809)"><g id="Groupe_30" data-name="Groupe 30"><circle id="Ellipse_51" data-name="Ellipse 51" class="cls-1" cx="3.83" cy="3.83" r="3.83"></circle></g></g></g></svg>