<svg xmlns="http://www.w3.org/2000/svg" width="45" height="52" viewBox="0 0 45 52">
  <g id="Groupe_18" data-name="Groupe 18" transform="translate(-7 -472)">
    <path id="Rectangle_211" data-name="Rectangle 211" d="M0,0H36a9,9,0,0,1,9,9V43a9,9,0,0,1-9,9H0a0,0,0,0,1,0,0V0A0,0,0,0,1,0,0Z" transform="translate(7 472)" fill="#f39325"/>
    <path id="Icon_awesome-angle-up" data-name="Icon awesome-angle-up" d="M12.49.5l9.594,9.594a1.686,1.686,0,0,1,0,2.391L20.49,14.076a1.686,1.686,0,0,1-2.391,0L11.291,7.283l-6.8,6.8a1.686,1.686,0,0,1-2.391,0L.5,12.489A1.686,1.686,0,0,1,.5,10.1L10.092.5A1.688,1.688,0,0,1,12.49.5Z" transform="translate(41.021 505.272) rotate(180)" fill="#fff"/>
  </g>
</svg>
 