<svg xmlns="http://www.w3.org/2000/svg" viewBox="0 0 296.75 80"><defs><style>.cls-1{fill:#28a1a8;}.cls-2{fill:#0b2f46;}.cls-3,.cls-4{fill:#f39325;}.cls-3{fill-rule:evenodd;}.cls-5{fill:#fff;}</style></defs><g id="Calque_2" data-name="Calque 2"><g id="Calque_1-2" data-name="Calque 1"><path class="cls-1" d="M26.15,30.08V53.33c0,4.82,10.46,8.71,23.47,8.71s23.47-3.89,23.47-8.71V30.08Z"/><polygon class="cls-2" points="49.62 1.21 0 22.98 49.8 44.5 99.23 22.98 49.62 1.21"/><path class="cls-3" d="M49,18.6a1.35,1.35,0,0,0-.42,2.61L73.94,31.86a1.73,1.73,0,0,1,.48.51,3.89,3.89,0,0,1,.69,2.39V67.91a1.35,1.35,0,1,0,2.69,0V34.76a6.67,6.67,0,0,0-1.2-4,5.25,5.25,0,0,0-1.34-1.3l-.1-.06L49.56,18.69A1.21,1.21,0,0,0,49,18.6Z"/><path class="cls-4" d="M128.65,61.17,110.5,71.65a3.25,3.25,0,0,1-3.22,0,3.2,3.2,0,0,1-1.6-2.78v-21a3.21,3.21,0,0,1,4.82-2.78l18.15,10.48a3.22,3.22,0,0,1,0,5.56Z"/><path class="cls-2" d="M108.28,34.44V0h12.88q6.11,0,9.45,3t3.33,8.55c0,3.69-1.11,6.54-3.34,8.53s-5.37,3-9.45,3h-6.67V34.44Zm6.2-16.94h6.2c2.72,0,4.58-.51,5.57-1.51a6.08,6.08,0,0,0,1.49-4.44,5.94,5.94,0,0,0-1.5-4.4c-1-1-2.85-1.48-5.56-1.48h-6.2Z"/><path class="cls-2" d="M139.17,34.44V11q.63-.3,1.74-.72a45.33,45.33,0,0,1,4.47-1.17A31.72,31.72,0,0,1,152,8.27v5.32a24.92,24.92,0,0,0-6.65.86v20Z"/><path class="cls-2" d="M158.27,31.41q-3.15-3.42-3.15-9.83t3.15-9.83q3.15-3.43,9-3.43t9,3.43q3.15,3.42,3.15,9.83t-3.15,9.83q-3.15,3.44-9,3.43T158.27,31.41ZM162.8,15.1q-1.49,1.7-1.48,6.49t1.48,6.48a6.91,6.91,0,0,0,9,0q1.47-1.68,1.47-6.48t-1.47-6.49a6.88,6.88,0,0,0-9,0Z"/><path class="cls-2" d="M183.9,21.48a18,18,0,0,1,.88-5.94,11.23,11.23,0,0,1,2.1-3.87,9.75,9.75,0,0,1,2.86-2.17,10.64,10.64,0,0,1,2.88-1,15.92,15.92,0,0,1,2.47-.2q5.43,0,8,2.47a8,8,0,0,1,2.56,6V35.07a11.77,11.77,0,0,1-.22,2.34,9.37,9.37,0,0,1-1,2.47,7.49,7.49,0,0,1-1.94,2.32,10.42,10.42,0,0,1-3.41,1.63,17.69,17.69,0,0,1-5.09.67,25.19,25.19,0,0,1-7.44-1V37.94a21.14,21.14,0,0,0,6.73,1,15.36,15.36,0,0,0,3.53-.33,3,3,0,0,0,1.86-1,3.94,3.94,0,0,0,.61-1.19,5.38,5.38,0,0,0,.13-1.35V33.66a22.24,22.24,0,0,1-3.91.43c-3.74,0-6.62-1.09-8.62-3.26S183.9,25.55,183.9,21.48Zm6.2.1q0,4.34,1.39,5.89A5.4,5.4,0,0,0,195.72,29a19,19,0,0,0,3.71-.36v-12q0-2.86-4.26-2.87h-.08a4.27,4.27,0,0,0-3.73,1.8Q190.1,17.39,190.1,21.58Z"/><path class="cls-2" d="M212.24,34.44V11q.63-.3,1.74-.72a45.69,45.69,0,0,1,4.46-1.17,31.82,31.82,0,0,1,6.66-.81v5.32a25,25,0,0,0-6.66.86v20Z"/><path class="cls-2" d="M228.56,21.83q0-6.19,2.76-9.91t8.76-3.7q5.67,0,8.58,3.6a13.72,13.72,0,0,1,2.92,8.88c0,1.44,0,2.51-.11,3.2H234.91c.17,2.24.84,3.73,2,4.49a8.27,8.27,0,0,0,4.55,1.13,20.35,20.35,0,0,0,8.77-2v5a20,20,0,0,1-9.71,2.32,17.31,17.31,0,0,1-3.22-.28,10.77,10.77,0,0,1-3.17-1.16,9.93,9.93,0,0,1-2.85-2.24,10.41,10.41,0,0,1-2-3.77A18,18,0,0,1,228.56,21.83Zm6.35-2.22H245.3a9.08,9.08,0,0,0-1.58-4.51,4.22,4.22,0,0,0-3.64-1.84,4.54,4.54,0,0,0-3.62,1.5A8.41,8.41,0,0,0,234.91,19.61Z"/><path class="cls-2" d="M255.85,16.31a7,7,0,0,1,2.74-6,10.9,10.9,0,0,1,6.82-2.08,13.82,13.82,0,0,1,7,1.84v4.71a13.85,13.85,0,0,0-5.95-1.23q-4.44,0-4.44,2.17a1.89,1.89,0,0,0,1.26,1.7,16.33,16.33,0,0,0,3.08,1.08A23.24,23.24,0,0,1,270,19.8a7.26,7.26,0,0,1,3.07,2.69,8.42,8.42,0,0,1,1.28,4.81,6.67,6.67,0,0,1-2.64,5.4,10.69,10.69,0,0,1-7,2.14,16.19,16.19,0,0,1-8.17-2.12V27.2a12.85,12.85,0,0,0,7.29,2.27c1.78,0,2.94-.2,3.48-.62a2.18,2.18,0,0,0,.81-1.85,2.08,2.08,0,0,0-1.28-1.83A15.71,15.71,0,0,0,263.81,24c-1.21-.34-2.41-.75-3.61-1.22a7.17,7.17,0,0,1-3.07-2.33A6.46,6.46,0,0,1,255.85,16.31Z"/><path class="cls-2" d="M278.25,16.31a7,7,0,0,1,2.74-6,10.89,10.89,0,0,1,6.81-2.08,13.86,13.86,0,0,1,7,1.84v4.71a13.85,13.85,0,0,0-5.95-1.23q-4.44,0-4.44,2.17a1.89,1.89,0,0,0,1.26,1.7,16.33,16.33,0,0,0,3.08,1.08,23.6,23.6,0,0,1,3.62,1.26,7.26,7.26,0,0,1,3.07,2.69,8.42,8.42,0,0,1,1.27,4.81,6.66,6.66,0,0,1-2.63,5.4,10.7,10.7,0,0,1-7,2.14A16.19,16.19,0,0,1,279,32.72V27.2a12.85,12.85,0,0,0,7.29,2.27c1.78,0,2.94-.2,3.48-.62a2.2,2.2,0,0,0,.8-1.85,2.07,2.07,0,0,0-1.27-1.83A15.57,15.57,0,0,0,286.2,24c-1.2-.34-2.4-.75-3.6-1.22a7.26,7.26,0,0,1-3.08-2.33A6.45,6.45,0,0,1,278.25,16.31Z"/><path class="cls-5" d="M114.79,52.28A5.71,5.71,0,0,1,120.71,58c0,1-.66,1.47-1.83,1.47h-6.95a3.18,3.18,0,0,0,3.4,2.74,5.16,5.16,0,0,0,2.4-.66,1.13,1.13,0,0,1,.59-.15,1.22,1.22,0,0,1,.56,2.3,7.86,7.86,0,0,1-3.89,1,6.21,6.21,0,1,1-.2-12.41Zm-2.91,5.09h5.82a2.73,2.73,0,0,0-2.91-2.62A2.84,2.84,0,0,0,111.88,57.37Z"/><path class="cls-1" d="M144.45,59.22H138l-1.78,4.64H134.5L140.43,49H142L148,63.86h-1.72Zm-.61-1.54-2.61-6.8-2.61,6.8Z"/><path class="cls-1" d="M151.13,62.78q-1.51-1.26-1.51-4.49c0-2.15.5-3.64,1.51-4.49a5.58,5.58,0,0,1,3.71-1.27,9.11,9.11,0,0,1,3.3.63V54.7a8.05,8.05,0,0,0-3.12-.63,3.73,3.73,0,0,0-2.89,1,4.75,4.75,0,0,0-.9,3.22,4.73,4.73,0,0,0,.9,3.22,3.73,3.73,0,0,0,2.89,1,7.93,7.93,0,0,0,3.12-.62v1.56a9.11,9.11,0,0,1-3.3.6A5.58,5.58,0,0,1,151.13,62.78Z"/><path class="cls-1" d="M168.86,53.45a3.28,3.28,0,0,1,1.08,2.65v5.4a2.1,2.1,0,0,1-1.32,2.15,9.82,9.82,0,0,1-3.63.55,5.64,5.64,0,0,1-3-.78,2.83,2.83,0,0,1-1.26-2.61,3.53,3.53,0,0,1,1.1-2.89,4.6,4.6,0,0,1,3-.91,6.8,6.8,0,0,1,3.5.79V56.48c0-1.67-1-2.5-2.92-2.5a7.26,7.26,0,0,0-1.94.27,4.54,4.54,0,0,0-1.65.8v-1.6a5.32,5.32,0,0,1,1.81-.67,10.57,10.57,0,0,1,2.29-.25A4.46,4.46,0,0,1,168.86,53.45Zm-1.24,9.08a.91.91,0,0,0,.69-.94v-2.5a6.14,6.14,0,0,0-1.41-.46,8.22,8.22,0,0,0-1.67-.17,3.69,3.69,0,0,0-2.16.54,2,2,0,0,0,.13,3.24,4.23,4.23,0,0,0,2.17.53A7.51,7.51,0,0,0,167.62,62.53Z"/><path class="cls-1" d="M182.63,48V61.94c0,.76-.48,1.33-1.44,1.7a8.62,8.62,0,0,1-3.13.56,5.27,5.27,0,0,1-3.57-1.33c-1-.89-1.53-2.46-1.54-4.72A6.11,6.11,0,0,1,174.23,54a4.75,4.75,0,0,1,3.8-1.49,7.31,7.31,0,0,1,1.44.19,11,11,0,0,1,1.55.46V48ZM181,54.81a5.37,5.37,0,0,0-1.46-.58A6,6,0,0,0,178,54a3,3,0,0,0-2.56,1.1,4.94,4.94,0,0,0-.83,3,6.43,6.43,0,0,0,.76,3.34,3,3,0,0,0,2.75,1.23,6.81,6.81,0,0,0,2-.26c.56-.18.84-.4.84-.67Z"/><path class="cls-1" d="M194.25,54.18a7.19,7.19,0,0,1,1.14,4.4h-8.12a4.54,4.54,0,0,0,.93,3.07,3.36,3.36,0,0,0,2.68,1.07,7.28,7.28,0,0,0,3.81-.95v1.65a8.92,8.92,0,0,1-3.9.78A4.87,4.87,0,0,1,187,62.69a6.34,6.34,0,0,1-1.36-4.4,6.38,6.38,0,0,1,1.28-4.3,4.56,4.56,0,0,1,3.6-1.46A4.28,4.28,0,0,1,194.25,54.18Zm-6,.5a3.84,3.84,0,0,0-1,2.42h6.36a3.55,3.55,0,0,0-.88-2.33,3.12,3.12,0,0,0-2.29-.77A3.27,3.27,0,0,0,188.29,54.68Z"/><path class="cls-1" d="M213.48,53.56a4.07,4.07,0,0,1,1,3v7.25h-1.6V56.61c0-1.75-1-2.63-3-2.63a5.16,5.16,0,0,0-2.7.76,5.44,5.44,0,0,1,.29,1.87v7.25h-1.61V56.61c0-1.75-1-2.63-3-2.63a10.44,10.44,0,0,0-2.92.45v9.43h-1.6V53.62a10.38,10.38,0,0,1,4.7-1.09,5,5,0,0,1,3.26.92,7.66,7.66,0,0,1,3.75-.92A4.62,4.62,0,0,1,213.48,53.56Z"/><path class="cls-1" d="M227.57,52.73,222.8,65a5.72,5.72,0,0,1-1.62,2.5,3.07,3.07,0,0,1-1.89.72,2.91,2.91,0,0,1-1-.2V66.49a2.17,2.17,0,0,0,1,.2A1.79,1.79,0,0,0,220.7,66a7.14,7.14,0,0,0,1-2.09l-4.61-11.18h1.83l3.52,9.08L226,52.73Z"/></g></g></svg>